# xmcd
# 
# Track frame offsets:
#     150
#     14786
#     31749
#     46624
#     67482
#     92176
#     109510
#     131118
#     160493
#     176945
#     193769
#     209167
#     225552
#     261092
# 
# Disc length: 3732
# 
# Revision: 0
# Processed by: cddbd v1.5.2PL0 Copyright (c) Steve Scherf et al.
# Submitted via: fre:ac v1.0.17
# 
DISCID=d30e920e
DTITLE=Eric Clapton - Unplugged
DYEAR=1992
DGENRE=Blues
TTITLE0=Signe
TTITLE1=Before You Accuse Me
TTITLE2=Hey Hey
TTITLE3=Tears In Heaven
TTITLE4=Lonely Stranger
TTITLE5=Nobody Knows You When You're Down and Out
TTITLE6=Layla
TTITLE7=Running On Faith
TTITLE8=Walkin' Blues
TTITLE9=Alberta
TTITLE10=San Francisco Bay Blues
TTITLE11=Malted Milk
TTITLE12=Old Love
TTITLE13=Rollin' and Tumblin'
EXTD=ERIC CLAPTON:  Unplugged
EXTT0=
EXTT1=
EXTT2=
EXTT3=
EXTT4=
EXTT5=
EXTT6=
EXTT7=
EXTT8=
EXTT9=
EXTT10=
EXTT11=
EXTT12=
EXTT13=
PLAYORDER=
